<svg xmlns="http://www.w3.org/2000/svg" width="226.066" height="45.548" viewBox="0 0 226.066 45.548">
    <defs>
        <style>
            .cls-1{fill:#4e9431}.cls-2{fill:#5eab42}.cls-3{fill:#2c2c2c}
        </style>
    </defs>
    <g id="Group_1" data-name="Group 1" transform="translate(-150 -25)">
        <g id="amulex_simple_ru" transform="translate(150 25)">
            <g id="Group_4" data-name="Group 4">
                <path id="Path_39" d="M4.71 45.548L31.355 0 64 45.548 0 19.355l50.839 14.258-19.484-19.226z" class="cls-1" data-name="Path 39"/>
                <path id="Path_40" d="M7.3 45.548L33.945 8.71V0z" class="cls-2" data-name="Path 40" transform="translate(-2.59)"/>
                <path id="Path_41" d="M48.6 13.5v5.676L68.084 38.4z" class="cls-2" data-name="Path 41" transform="translate(-17.245 -4.79)"/>
                <path id="Path_42" d="M0 30l54.968 18.774L64 56.194" class="cls-2" data-name="Path 42" transform="translate(0 -10.645)"/>
                <path id="Path_43" d="M7.3 50.339l26.645-31.163V13.5z" class="cls-1" data-name="Path 43" transform="translate(-2.59 -4.79)"/>
            </g>
        </g>
        <path id="Path_1" d="M10.29-21a16.687 16.687 0 0 1 3.318.315 7.434 7.434 0 0 1 2.73 1.113 5.72 5.72 0 0 1 1.869 2.121 7.156 7.156 0 0 1 .693 3.339V0h-4.746v-1.848l-.084-.042a4.779 4.779 0 0 1-2.331 1.6 9.575 9.575 0 0 1-3.087.5A7.925 7.925 0 0 1 3.4-1.407a5.712 5.712 0 0 1-1.93-4.641 6.284 6.284 0 0 1 .462-2.394 5.839 5.839 0 0 1 1.344-1.995 6.336 6.336 0 0 1 2.2-1.365 8.518 8.518 0 0 1 3.045-.5h5.628v-1.512a3.442 3.442 0 0 0-.189-1.134 2.174 2.174 0 0 0-.651-.945 3.544 3.544 0 0 0-1.26-.651 6.808 6.808 0 0 0-2.016-.252 8.3 8.3 0 0 0-2.9.441 6.008 6.008 0 0 0-2.058 1.281L2.562-18.27a8.326 8.326 0 0 1 3.528-2.121 14.444 14.444 0 0 1 4.2-.609zM5.964-6.384a2.424 2.424 0 0 0 .189.924 2.055 2.055 0 0 0 .63.819 3.594 3.594 0 0 0 1.134.588 5.59 5.59 0 0 0 1.743.231 8.124 8.124 0 0 0 1.554-.147 4.639 4.639 0 0 0 1.365-.483 3.287 3.287 0 0 0 1.029-.882 2.657 2.657 0 0 0 .5-1.386 3.933 3.933 0 0 0 .042-.63v-1.344H9.324a3.942 3.942 0 0 0-2.583.672 2.088 2.088 0 0 0-.777 1.638zM40.11 0v-11.34h-.042q-.714 1.47-1.428 2.856T37.212-5.67l-1.47 2.814h-3.4l-1.85-3.528Q29.82-7.6 29.19-8.862t-1.218-2.52h-.042V0h-4.662v-20.79h4.284q1.428 2.646 2.247 4.221t1.281 2.436q.462.861.651 1.239l.315.63 2.016 3.822q.5-.966.966-1.911t.966-1.911q1.05-2.184 2.184-4.284T40.4-20.79h4.368V0zm17.6 4.2a5.864 5.864 0 0 1-2.52 3.3 7.192 7.192 0 0 1-3.528.9H49.9V4.41h1.3a2.077 2.077 0 0 0 1.554-.651 4.46 4.46 0 0 0 .966-1.533l1.05-3.276-7.646-19.74h5.124l2.688 7.644 2.058 6.552h.168l2.058-6.468 2.646-7.728h5zm18.352-20.874v5.334q0 5.712-1.743 8.589T68.25.42l-.42-1.764-.42-1.764a9.843 9.843 0 0 0 2.142-.861A3.558 3.558 0 0 0 70.9-5.355a6.592 6.592 0 0 0 .693-2.352 29.319 29.319 0 0 0 .189-3.675v-9.408h15.074V0H82.11v-16.674zM95.928-9.03a6.92 6.92 0 0 0 .252 1.869 4.5 4.5 0 0 0 .8 1.6 4.029 4.029 0 0 0 1.386 1.113 4.363 4.363 0 0 0 1.974.42 8.123 8.123 0 0 0 2.331-.441 6.738 6.738 0 0 0 2.583-1.533q.756.84 1.386 1.659t1.386 1.659A10.566 10.566 0 0 1 104.2-.42a12.946 12.946 0 0 1-4.032.672 12.019 12.019 0 0 1-3.274-.462 7.176 7.176 0 0 1-2.94-1.659A8.731 8.731 0 0 1 91.833-5.1a14.174 14.174 0 0 1-.819-5.229 13.633 13.633 0 0 1 .819-5.061 9.377 9.377 0 0 1 2.121-3.3 7.717 7.717 0 0 1 2.919-1.81 9.995 9.995 0 0 1 3.213-.546 9.424 9.424 0 0 1 3.759.714 7.983 7.983 0 0 1 2.814 1.995 8.641 8.641 0 0 1 1.764 3.129 13.1 13.1 0 0 1 .609 4.116v2.062zm4.116-7.686a3.634 3.634 0 0 0-2.73 1.134 5.216 5.216 0 0 0-1.3 3.192h7.98a4.749 4.749 0 0 0-1.239-3.234 3.723 3.723 0 0 0-2.711-1.092zM113.022 0v-20.748h4.746v8.442h2.688a7.172 7.172 0 0 0 1.092-.084 2.944 2.944 0 0 0 1.071-.4 3.327 3.327 0 0 0 .966-.924 5.277 5.277 0 0 0 .735-1.617L126-20.79h4.7l-1.89 6.048a8.412 8.412 0 0 1-1.21 2.542 3.562 3.562 0 0 1-1.932 1.365 3.353 3.353 0 0 1 2.184 1.449 10.422 10.422 0 0 1 1.176 2.667L131.082 0h-4.872l-1.51-5.334a4.621 4.621 0 0 0-1.659-2.6 4.387 4.387 0 0 0-2.289-.588h-2.982V0zm37.044-2.814a11.121 11.121 0 0 1-3.36 2.268 9.956 9.956 0 0 1-3.99.8 10.753 10.753 0 0 1-3.616-.611 8.317 8.317 0 0 1-3.045-1.89 9.023 9.023 0 0 1-2.1-3.3 13.438 13.438 0 0 1-.777-4.83A12.816 12.816 0 0 1 134-15.2a9.543 9.543 0 0 1 2.163-3.318 8.091 8.091 0 0 1 3.108-1.89 11.35 11.35 0 0 1 3.613-.592 9.672 9.672 0 0 1 7.1 2.94l-3.066 3.318a5.439 5.439 0 0 0-3.948-1.932 4.486 4.486 0 0 0-3.654 1.512 7.423 7.423 0 0 0-1.26 4.788 7.435 7.435 0 0 0 1.239 4.746 4.424 4.424 0 0 0 3.633 1.512 4.517 4.517 0 0 0 2.1-.546 7.843 7.843 0 0 0 1.932-1.428z" class="cls-3" data-name="Path 1" transform="translate(226 60)"/>
    </g>
</svg>
