<svg xmlns="http://www.w3.org/2000/svg" width="57.089" height="43.5" viewBox="0 0 57.089 43.5">
    <defs>
        <style>
            .cls-1{fill:#8bc540;stroke-width:.2px}.cls-1,.cls-3{stroke:#8bc540}.cls-2,.cls-3{fill:none}.cls-2{stroke:#072833;stroke-width:2px}
        </style>
    </defs>
    <g id="Group_23" data-name="Group 23" transform="translate(-403.5 -369.5)">
        <path id="Path_23" d="M.561-8.368a5.2 5.2 0 0 1 .62-1.544 4.228 4.228 0 0 1 .966-1.1 4.19 4.19 0 0 1 1.208-.672 4.051 4.051 0 0 1 1.365-.231 4.293 4.293 0 0 1 1.565.273 3.415 3.415 0 0 1 1.2.767 3.508 3.508 0 0 1 .767 1.155 3.734 3.734 0 0 1 .268 1.436 3.285 3.285 0 0 1-.137.956 4.363 4.363 0 0 1-.357.851 4.965 4.965 0 0 1-.515.756q-.294.357-.567.693-.294.357-.609.7a6.668 6.668 0 0 0-.567.714 4.672 4.672 0 0 0-.431.777 2.484 2.484 0 0 0-.2.893v1.388h-.964v-1.428a2.757 2.757 0 0 1 .21-1.071 5.4 5.4 0 0 1 .525-.966 6.571 6.571 0 0 1 .725-.861q.452-.462.882-.977A6.218 6.218 0 0 0 7.25-6.95a2.555 2.555 0 0 0 .3-1.208 3.558 3.558 0 0 0-.137-.924 2.539 2.539 0 0 0-.483-.935 2.813 2.813 0 0 0-.914-.725 3.086 3.086 0 0 0-1.428-.294 2.572 2.572 0 0 0-1.239.294 3.445 3.445 0 0 0-.935.725 3.75 3.75 0 0 0-.62.924A3.393 3.393 0 0 0 1.5-8.2zM4.089 2.8V1.523h1.176V2.8z" class="cls-1" data-name="Path 23" transform="translate(414.514 389.931)"/>
        <path id="Subtraction_3" d="M15.441 30.882a15.288 15.288 0 0 1-6.72-1.535l-7.694.918 2.378-5.15a15.442 15.442 0 1 1 27.349-11.669A15.465 15.465 0 0 0 23.6 28.554a15.4 15.4 0 0 1-8.159 2.328z" class="cls-2" data-name="Subtraction 3" transform="translate(404.5 370.5)"/>
        <path id="Union_3" d="M8.721 1.535L1.027.617l2.378 5.15a15.411 15.411 0 1 0 5.316-4.232z" class="cls-3" data-name="Union 3" transform="rotate(180 230.044 206.25)"/>
    </g>
</svg>
