<svg xmlns="http://www.w3.org/2000/svg" width="20.304" height="20.304" viewBox="0 0 20.304 20.304">
    <defs>
        <style>
            .cls-1{fill:#fff;fill-rule:evenodd}
        </style>
    </defs>
    <path id="iconmonstr-instagram-6" d="M17.961 0H2.343A2.343 2.343 0 0 0 0 2.343v15.616A2.343 2.343 0 0 0 2.343 20.3h15.619a2.342 2.342 0 0 0 2.338-2.341V2.343A2.342 2.342 0 0 0 17.961 0zm-7.809 6.248a3.9 3.9 0 1 1-3.9 3.9 3.9 3.9 0 0 1 3.9-3.9zm7.614 10.738a.781.781 0 0 1-.782.78H3.32a.781.781 0 0 1-.782-.78V8.46h1.6a6.4 6.4 0 0 0-.169.821 5.914 5.914 0 0 0-.069.871 6.247 6.247 0 1 0 12.494 0 5.894 5.894 0 0 0-.069-.87 6.4 6.4 0 0 0-.169-.821h1.6v8.525zm0-11.827a.781.781 0 0 1-.782.781h-1.839a.781.781 0 0 1-.781-.781v-1.84a.78.78 0 0 1 .781-.781h1.839a.781.781 0 0 1 .782.781z" class="cls-1"/>
</svg>
