<svg xmlns="http://www.w3.org/2000/svg" width="42" height="42" viewBox="0 0 42 42">
    <defs>
        <style>
            .cls-1{fill:#677b82;opacity:.495}
        </style>
    </defs>
    <path id="Subtraction_1" d="M-2911 42a20.869 20.869 0 0 1-8.174-1.65 20.932 20.932 0 0 1-6.675-4.5 20.93 20.93 0 0 1-4.5-6.675A20.865 20.865 0 0 1-2932 21a20.863 20.863 0 0 1 1.65-8.174 20.93 20.93 0 0 1 4.5-6.675 20.932 20.932 0 0 1 6.675-4.5A20.87 20.87 0 0 1-2911 0a20.868 20.868 0 0 1 8.174 1.65 20.931 20.931 0 0 1 6.675 4.5 20.93 20.93 0 0 1 4.5 6.675A20.863 20.863 0 0 1-2890 21a20.865 20.865 0 0 1-1.65 8.174 20.93 20.93 0 0 1-4.5 6.675 20.931 20.931 0 0 1-6.675 4.5A20.868 20.868 0 0 1-2911 42zm0-22.171l4.589 4.579L-2905 23l-6-6-6 6 1.41 1.409 4.59-4.579z" class="cls-1" data-name="Subtraction 1" transform="translate(2932)"/>
</svg>
