<svg xmlns="http://www.w3.org/2000/svg" width="126" height="56" viewBox="0 0 126 56">
    <defs>
        <style>
            .cls-1{fill:#677b82;opacity:.496}
        </style>
    </defs>
    <path id="Subtraction_2" d="M98 56H28A28.007 28.007 0 0 1 17.1 2.2 27.824 27.824 0 0 1 28 0h70a28.007 28.007 0 0 1 10.9 53.8A27.825 27.825 0 0 1 98 56zm-9.822-33.048v4.082c0 .509-.015.966-.046 1.358a3.911 3.911 0 0 1-.208 1.034 1.683 1.683 0 0 1-.494.721 2.03 2.03 0 0 1-.916.4l.273 1.624a3.223 3.223 0 0 0 1.716-.474 2.839 2.839 0 0 0 .975-1.15 5.218 5.218 0 0 0 .442-1.652 17.984 17.984 0 0 0 .1-1.976v-2.16h2.132V32h1.976v-9.048zm11.022-.065a3.845 3.845 0 0 0-1.54.286 3.118 3.118 0 0 0-1.093.773 3.225 3.225 0 0 0-.65 1.125 4.183 4.183 0 0 0-.214 1.338v2.132a4.238 4.238 0 0 0 .214 1.346 3.213 3.213 0 0 0 .65 1.131 3.1 3.1 0 0 0 1.093.773 3.845 3.845 0 0 0 1.54.286 4.143 4.143 0 0 0 1.463-.247 3.125 3.125 0 0 0 1.119-.708A3.191 3.191 0 0 0 102.5 30a4.043 4.043 0 0 0 .254-1.463V26.41a3.941 3.941 0 0 0-.247-1.4 3.2 3.2 0 0 0-.708-1.118 3.316 3.316 0 0 0-1.118-.734 3.916 3.916 0 0 0-1.481-.271zm-18.77 7.267h3.028L84.135 32h2.106l-3.51-9.049h-1.573L77.648 32h2.106l.676-1.846zm-16.991 0h3.029L67.144 32h2.106l-3.51-9.049h-1.573L60.657 32h2.106l.676-1.846zm-8.606-1.846H57.8V32h1.975v-9.048H57.8v3.627h-2.967v-3.627h-2V32h2v-3.691zM40.91 22.952V32h4.12a3.061 3.061 0 0 0 1.086-.2 2.792 2.792 0 0 0 .9-.546 2.587 2.587 0 0 0 .839-1.949 2.1 2.1 0 0 0-.085-.572 2.442 2.442 0 0 0-.247-.572 2.306 2.306 0 0 0-.4-.493 1.615 1.615 0 0 0-.546-.338v-.052a1.807 1.807 0 0 0 .871-.779 2.111 2.111 0 0 0 .26-.988 2.7 2.7 0 0 0-.2-1.034 2.168 2.168 0 0 0-.578-.812 2.727 2.727 0 0 0-.943-.527 3.985 3.985 0 0 0-1.274-.189zm33.878 5.382v3.653h1.976v-9.048H74.8v3.874a2.994 2.994 0 0 1-.325.123 3.239 3.239 0 0 1-.383.1 6.164 6.164 0 0 1-.4.065 2.85 2.85 0 0 1-.357.026 1.256 1.256 0 0 1-1.4-1.43v-2.758h-1.95v3.016a3.238 3.238 0 0 0 .234 1.307 2.323 2.323 0 0 0 .625.851 2.425 2.425 0 0 0 .9.468 3.88 3.88 0 0 0 1.053.143 6.981 6.981 0 0 0 1.053-.085 2.9 2.9 0 0 0 .948-.305zM24 25.83l4.59 4.58L30 29l-6-6-6 6 1.41 1.41L24 25.831zm75.189 4.376a1.508 1.508 0 0 1-.65-.13 1.411 1.411 0 0 1-.455-.338 1.385 1.385 0 0 1-.273-.481 1.79 1.79 0 0 1-.091-.572v-2.457a1.649 1.649 0 0 1 .091-.539 1.392 1.392 0 0 1 .273-.474 1.324 1.324 0 0 1 .455-.332 1.579 1.579 0 0 1 .65-.123 1.446 1.446 0 0 1 1.124.436 1.487 1.487 0 0 1 .4 1.033v2.457a1.556 1.556 0 0 1-.4 1.085 1.446 1.446 0 0 1-1.124.435zm-54.574 0h-1.7v-2h1.7a1.554 1.554 0 0 1 .54.085 1.021 1.021 0 0 1 .37.227.872.872 0 0 1 .208.326 1.092 1.092 0 0 1 .066.376.993.993 0 0 1-.274.689 1.191 1.191 0 0 1-.91.297zm38.22-1.742h-1.781l.338-1.067.519-1.768h.052l.533 1.794.338 1.039zm-16.991 0h-1.781L64.4 27.4l.519-1.768h.052l.533 1.794.338 1.039zm-21.4-1.912h-1.532v-1.806h1.534a1.3 1.3 0 0 1 .885.24.808.808 0 0 1 .26.617.963.963 0 0 1-.26.663 1.161 1.161 0 0 1-.885.287z" class="cls-1" data-name="Subtraction 2"/>
</svg>
