<svg xmlns="http://www.w3.org/2000/svg" width="24" height="28.8" viewBox="0 0 24 28.8">
    <defs>
        <style>
            .cls-1{fill:#fff}
        </style>
    </defs>
    <path id="iconmonstr-youtube-1" d="M5.182 0H6.91L8.1 4.442 9.2 0h1.74l-2 6.606v4.508H7.225V6.606zM13.1 2.848a2.1 2.1 0 0 0-2.233 2.2v4.02a1.97 1.97 0 0 0 2.233 2.2 2.088 2.088 0 0 0 2.191-2.2V5.05a2.141 2.141 0 0 0-2.191-2.2zM13.732 9c0 .446-.228.775-.638.775A.691.691 0 0 1 12.429 9V5.185c0-.449.206-.781.635-.781.468 0 .668.323.668.781V9zm5.675-6.084v6.223c-.186.233-.6.614-.9.614-.325 0-.406-.223-.406-.552V2.916h-1.52v6.852c0 .81.247 1.464 1.064 1.464a2.41 2.41 0 0 0 1.762-1.024v.9h1.524v-8.2zm2.644 16.63c-.538 0-.649.378-.649.916v.791h1.283v-.793c0-.528-.11-.914-.634-.914zm-5.644.048a1.113 1.113 0 0 0-.3.238V24.7a1.273 1.273 0 0 0 .344.275.618.618 0 0 0 .743-.08.9.9 0 0 0 .126-.539v-4.034a.984.984 0 0 0-.155-.6.6.6 0 0 0-.758-.128zM22.2 13.36c-3.125-.212-13.279-.212-16.4 0-3.376.23-3.775 2.27-3.8 7.64.025 5.36.42 7.41 3.8 7.64 3.12.212 13.274.212 16.4 0 3.377-.23 3.775-2.272 3.8-7.64-.025-5.36-.42-7.41-3.8-7.64zM7.411 26.183H5.775v-9.048H4.083V15.6H9.1v1.536H7.41v9.048zm5.815 0h-1.452v-.862a3.174 3.174 0 0 1-.835.726c-.782.449-1.856.438-1.856-1.146v-6.525h1.451v5.986c0 .314.076.526.386.526.283 0 .677-.364.853-.584v-5.928h1.452v7.807zm5.588-1.618c0 .966-.361 1.717-1.327 1.717a1.659 1.659 0 0 1-1.379-.7v.6h-1.465V15.6h1.465v3.408a1.742 1.742 0 0 1 1.291-.73c1.063 0 1.416.9 1.416 1.957v4.331zm5.365-2.1H21.4v1.474c0 .586.05 1.092.634 1.092.613 0 .649-.413.649-1.092v-.542h1.497v.587c0 1.5-.646 2.416-2.176 2.416-1.386 0-2.1-1.01-2.1-2.416v-3.508a2.147 2.147 0 0 1 2.2-2.3c1.393 0 2.065.886 2.065 2.3v1.987z" class="cls-1" transform="translate(-2)"/>
</svg>
